<svg width="400" height="400" xmlns="http://www.w3.org/2000/svg">
 <!-- Created with Method Draw - http://github.com/duopixel/Method-Draw/ -->

 <g>
  <title>background</title>
  <rect fill="none" id="canvas_background" height="402" width="402" y="-1" x="-1"/>
  <g display="none" overflow="visible" y="0" x="0" height="100%" width="100%" id="canvasGrid">
   <rect fill="url(#gridpattern)" stroke-width="0" y="0" x="0" height="100%" width="100%"/>
  </g>
 </g>
 <g>
  <title>Layer 1</title>
  <ellipse stroke="#000" ry="185.999998" rx="186.499999" id="svg_3" cy="199.999976" cx="199.500005" stroke-width="24" fill="none"/>
  <text stroke="#000" transform="matrix(15.976529573453243,0,0,13.49134078500535,-2878.0418132573163,-1317.5629316209697) " xml:space="preserve" text-anchor="start" font-family="Helvetica, Arial, sans-serif" font-size="24" id="svg_1" y="120.653601" x="184.19217" stroke-width="0" fill="#000000">D</text>
  <path d="m106.5,289.770844c0,-1 -0.768593,0.612915 -3,6c-1.577843,3.809265 -2.496223,6.907776 -3,11c-0.24437,1.985016 0.307449,3.186005 -1,5c-0.826904,1.147278 -1.144295,2.934143 -2,5c-1.210152,2.92157 -2.292892,5.292908 -3,6c-0.707108,0.707092 -1.292892,1.292908 -2,2c-0.707108,0.707092 -1,1 -2,2c-2,2 -2.693436,2.458801 -4,3c-0.923882,0.38269 -1.693436,1.458801 -3,2c-0.923882,0.38269 -2,0 -3,1c0,0 -2,0 -3,0c-1,0 -2,0 -3,0c-1,0 -2,0 -3,0l-1,0l0,0" id="svg_6" stroke-width="24" stroke="#000" fill="none"/>
  <path d="m112.5,88.770836c0,-1 0,-2 0,-2c-2,-1 -2,-1 -3,-1c-2,0 -5,0 -5,0c-1,0 -2.152245,-0.765366 -4,0c-1.306564,0.541199 -1.693436,2.458801 -3,3c-0.923882,0.382683 -1,1 -2,1l0,1l-1,0l0,0" id="svg_7" stroke-width="24" stroke="#000" fill="none"/>
  <text stroke="#000" transform="matrix(2.4780063629150386,0,0,2.6720809936523438,-275.088059425354,-241.899876732612) " xml:space="preserve" text-anchor="start" font-family="Helvetica, Arial, sans-serif" font-size="24" id="svg_8" y="192.770833" x="166.5" stroke-width="0" fill="#000000">emo</text>
  <path d="m104.5,94.770836c0,-1 0,-2 0,-2c-1,0 -1,-1 -1,-2c0,0 -0.292892,-0.292892 -1,-1c-0.707108,-0.707108 0,-1 0,-1c-1,0 -2,0 -2,-1c0,-1 -1,-1 -1,-1c-1,-1 -1,-2 -2,-2c-1,0 -1,0 -2,0l-1,0l0,-1l0,0" id="svg_9" stroke-width="24" stroke="#000" fill="none"/>
 </g>
</svg>